PathFileType	4	(X/Y/Z)	8_coords_data.trc
DataRate	CameraRate	NumFrames	NumMarkers	Units	OrigDataRate	OrigDataStartFrame	OrigNumFrames
30.0	30.0	9	21	m	30.0	19	47
Frame#	Time	THUMB_TIP	THUMB_IP	THUMB_MCP	THUMB_CMC	INDEX_TIP	INDEX_DIP	INDEX_PIP	INDEX_MCP	MIDDLE_TIP	MIDDLE_DIP	MIDDLE_PIP	MIDDLE_MCP	RING_TIP	RING_DIP	RING_PIP	RING_MCP	PINKY_TIP	PINKY_DIP	PINKY_PIP	PINKY_MCP	WRIST
X1	Y1	Z1	X2	Y2	Z2	X3	Y3	Z3	X4	Y4	Z4	X5	Y5	Z5	X6	Y6	Z6	X7	Y7	Z7	X8	Y8	Z8	X9	Y9	Z9	X10	Y10	Z10	X11	Y11	Z11	X12	Y12	Z12	X13	Y13	Z13	X14	Y14	Z14	X15	Y15	Z15	X16	Y16	Z16	X17	Y17	Z17	X18	Y18	Z18	X19	Y19	Z19	X20	Y20	Z20	X21	Y21	Z21
18	0.6	-0.026025299072265626	0.00934173011779785	0.9396929931640625	-0.025216999053955077	-0.002987580060958862	0.9618759765625	-0.036924800872802734	-0.005781859874725342	0.986594970703125	-0.0477947998046875	0.01611359977722168	1.0004500122070312	-0.05305110168457031	-0.010542200088500977	0.9751729736328125	-0.03946810150146484	-0.012361300468444825	0.9642429809570312	-0.042271598815917966	-0.018697099685668947	0.9464409790039062	-0.07727490234375	-0.015894100189208983	0.9575969848632813	-0.038798500061035156	0.002837670087814331	0.968781982421875	-0.03683629989624024	0.003741090059280395	0.96389599609375	-0.04002090072631836	0.000686465978622436	0.9402570190429688	-0.07865129852294922	0.003858789920806884	0.9499240112304688	-0.04529460144042969	0.018383699417114256	0.9768280029296875	-0.03788290023803711	0.020043500900268553	0.9688330078125	-0.03598860168457031	0.020359699249267577	0.9447490234375	-0.07266470336914063	0.022761600494384766	0.9495070190429687	-0.049772499084472656	0.0329911994934082	0.9817260131835938	-0.03740169906616211	0.03318059921264648	0.9727260131835938	-0.03653189849853516	0.03513359832763672	0.9556170043945312	-0.06418070220947265	0.039822399139404295	0.95352099609375	-0.07508499908447265	0.03575289916992187	1.02077001953125
19	0.6333333333333333	-0.02594770050048828	0.009257129669189453	0.9396019897460938	-0.02524250030517578	-0.003121639966964721	0.961864013671875	-0.03695750045776367	-0.005945340156555175	0.9865479736328125	-0.047744701385498044	0.015968500137329103	1.0004299926757811	-0.05305160140991211	-0.010824199676513671	0.9743209838867187	-0.0395015983581543	-0.012451499938964843	0.9642109985351562	-0.04224240112304688	-0.018783199310302735	0.9463989868164062	-0.07725959777832031	-0.016	0.9574080200195313	-0.03894459915161133	0.002776190042495727	0.9688989868164063	-0.036836200714111325	0.00365470004081726	0.9638720092773437	-0.03998609924316406	0.000603250980377197	0.94027001953125	-0.07862419891357422	0.003741169929504394	0.9498040161132812	-0.04476950073242188	0.018267200469970702	0.9765029907226562	-0.03785940170288086	0.01995599937438965	0.9688040161132813	-0.03587360000610352	0.020299299240112305	0.9450040283203125	-0.07262899780273438	0.022656200408935546	0.9494500122070313	-0.04983150100708008	0.032923301696777346	0.981655029296875	-0.03750339889526367	0.033109199523925784	0.9727269897460937	-0.036538299560546876	0.03503530120849609	0.9555659790039063	-0.06416020202636719	0.03975579833984375	0.95347998046875	-0.07512760162353516	0.0356515998840332	1.0207899780273437
20	0.6666666666666666	-0.025975099563598635	0.008904700279235839	0.93947998046875	-0.02529770088195801	-0.003260159969329834	0.9616929931640625	-0.03693299865722656	-0.00604971981048584	0.9863759765625	-0.04769219970703125	0.015863800048828126	1.0002999877929688	-0.05310039901733398	-0.010969799995422363	0.9742960205078125	-0.03955759811401367	-0.012607099533081055	0.9640180053710937	-0.042402400970458984	-0.01891830062866211	0.94618701171875	-0.07741339874267578	-0.01604710006713867	0.9573250122070313	-0.03906010055541992	0.00257433009147644	0.9686740112304687	-0.03688339996337891	0.00347721004486084	0.9636290283203125	-0.04014300155639648	0.00043571600317955005	0.9400460205078125	-0.07868309783935547	0.003693959951400757	0.9497529907226563	-0.045285301208496095	0.018243900299072267	0.9770009765625	-0.03785390090942383	0.01977359962463379	0.9685819702148437	-0.036058998107910155	0.020121599197387697	0.9445679931640625	-0.07267630004882812	0.0225900993347168	0.94939697265625	-0.049762901306152345	0.03278340148925781	0.981447021484375	-0.03748580169677734	0.0329541015625	0.972510986328125	-0.03656980133056641	0.034909698486328126	0.9553660278320313	-0.06419889831542969	0.03968399810791016	0.9534240112304687	-0.07501439666748047	0.03556629943847656	1.0207000122070313
21	0.7	-0.025906999588012694	0.00876566982269287	0.9392890014648437	-0.025269100189208984	-0.003335370063781738	0.961468017578125	-0.03689979934692383	-0.006119669914245605	0.986239013671875	-0.04770230102539062	0.015777299880981446	1.0001500244140624	-0.05298379898071289	-0.01096109962463379	0.9744979858398437	-0.0395536994934082	-0.012662799835205078	0.9639140014648437	-0.042249801635742185	-0.018939300537109374	0.945968994140625	-0.0775261993408203	-0.016075000762939454	0.9572100219726563	-0.039018798828125	0.0026563498973846433	0.9689290161132813	-0.03685639953613281	0.003420340061187744	0.9635059814453125	-0.04018000030517578	0.00036868101358413603	0.9399130249023437	-0.07871690368652344	0.003699579954147339	0.9497310180664063	-0.045136699676513674	0.018168800354003905	0.976916015625	-0.03784659957885742	0.019708499908447266	0.9684559936523438	-0.03610260009765625	0.02004610061645508	0.9444089965820313	-0.07265720367431641	0.022572500228881836	0.949323974609375	-0.049679401397705075	0.032714298248291016	0.9812349853515625	-0.03740570068359375	0.032860698699951174	0.9723939819335937	-0.0365343017578125	0.03480550003051758	0.9552540283203125	-0.06417189788818359	0.039632598876953126	0.953322998046875	-0.07485829925537109	0.035528900146484375	1.0206599731445312
22	0.7333333333333333	-0.025457799911499022	0.008896249771118164	0.939344970703125	-0.025018600463867186	-0.003240999937057495	0.9614840087890625	-0.03673249816894531	-0.005979459762573242	0.986198974609375	-0.047567501068115234	0.01581879997253418	1.0001799926757813	-0.0527150993347168	-0.01094219970703125	0.974198974609375	-0.03920999908447265	-0.012582300186157226	0.9637880249023437	-0.042096099853515624	-0.018877899169921875	0.9459760131835937	-0.07710199737548828	-0.016005300521850587	0.9571329956054687	-0.038777099609375	0.002726279973983764	0.9688610229492187	-0.03665380096435547	0.003505460023880005	0.9635800170898438	-0.0397952995300293	0.00046836900711059505	0.939906005859375	-0.07838059997558594	0.0037948899269104	0.9496099853515625	-0.04498580169677734	0.018377599716186525	0.9770159912109375	-0.03757429885864258	0.01977009963989258	0.9684039916992188	-0.03575559997558594	0.020139299392700195	0.9444210205078125	-0.07238770294189453	0.022654399871826172	0.9493200073242187	-0.04947710037231445	0.032742801666259765	0.9813720092773438	-0.037249099731445315	0.03289530181884766	0.9722150268554688	-0.03626029968261719	0.034905799865722655	0.9552570190429688	-0.063902099609375	0.039673500061035157	0.953322998046875	-0.07484380340576172	0.035547698974609375	1.0206599731445312
23	0.7666666666666667	-0.02519580078125	0.008751910209655761	0.9390059814453126	-0.024858699798583985	-0.003308089971542358	0.9612620239257812	-0.03665800094604492	-0.0060203299522399905	0.9862150268554688	-0.047365699768066406	0.015840800285339355	1.0001900024414063	-0.0530369987487793	-0.010803799629211425	0.9744219970703125	-0.03915390014648437	-0.01262380027770996	0.963718994140625	-0.04199309921264648	-0.018873600006103514	0.9458519897460937	-0.07694509887695312	-0.015895500183105468	0.9572329711914063	-0.03859870147705078	0.002610120058059692	0.9685549926757813	-0.03661550140380859	0.00336269998550415	0.9631129760742188	-0.03968069839477539	0.00045943400263786307	0.939718994140625	-0.07826799774169922	0.003895780086517334	0.9496370239257812	-0.044591201782226565	0.018122699737548827	0.976280029296875	-0.037394798278808594	0.019743099212646484	0.968166015625	-0.035628200531005856	0.020118400573730467	0.944260009765625	-0.07221939849853516	0.022767099380493164	0.9493049926757813	-0.049298599243164064	0.03276789855957031	0.9810640258789063	-0.03695690155029297	0.032923198699951174	0.9721300048828125	-0.03614749908447266	0.03494680023193359	0.9550449829101563	-0.06377780151367188	0.03978070068359375	0.9533179931640625	-0.07469819641113282	0.0356072998046875	1.0206699829101562
24	0.8	-0.02492970085144043	0.007874350070953369	0.9384030151367188	-0.025156700134277343	-0.003440959930419922	0.9609829711914063	-0.03679410171508789	-0.005992189884185791	0.9860689697265625	-0.047569198608398436	0.015964099884033203	1.0001099853515625	-0.0530547981262207	-0.010755100250244141	0.974198974609375	-0.03940890121459961	-0.01272760009765625	0.9633900146484375	-0.0424655990600586	-0.01902429962158203	0.9454199829101563	-0.07723619842529297	-0.01574810028076172	0.9571259765625	-0.03874269866943359	0.002506999969482422	0.9680889892578125	-0.036602699279785156	0.0033463599681854248	0.96285498046875	-0.040077499389648434	0.000228134006261825	0.9392890014648437	-0.07844259643554688	0.004012129783630371	0.949614013671875	-0.04510940170288086	0.01818980026245117	0.9768709716796875	-0.03748699951171875	0.019680400848388672	0.9677639770507812	-0.0360453987121582	0.019923900604248045	0.9436630249023438	-0.07243299865722656	0.022876699447631835	0.9492769775390625	-0.04937889862060547	0.032716598510742184	0.9809039916992187	-0.0370181999206543	0.03285359954833984	0.9716749877929688	-0.036424598693847655	0.0348745002746582	0.9544959716796875	-0.06400350189208984	0.03991600036621094	0.9532490234375	-0.07471910095214844	0.035733699798583984	1.02097998046875
25	0.8333333333333334	-0.023642799377441407	0.006299890041351318	0.9381439819335937	-0.02531879997253418	-0.003859590053558349	0.9613350219726563	-0.03703139877319336	-0.005763720035552979	0.9862369995117187	-0.04777180099487305	0.016107900619506836	1.000239990234375	-0.05288130187988281	-0.01080109977722168	0.973968994140625	-0.03948160171508789	-0.01299370002746582	0.9631069946289063	-0.04280110168457031	-0.019499000549316407	0.9452310180664063	-0.07748919677734376	-0.015666199684143067	0.9573060302734375	-0.03892509841918945	0.002404269933700561	0.9679869995117187	-0.03679439926147461	0.0030946800708770753	0.9624240112304687	-0.040371700286865236	-0.00040124601125717104	0.9387139892578125	-0.07848699951171875	0.004026569843292236	0.949823974609375	-0.04525389862060547	0.01804509925842285	0.9753759765625	-0.037629199981689454	0.019458499908447266	0.9668679809570313	-0.03644250106811524	0.01937339973449707	0.9428400268554687	-0.07255169677734374	0.022869600296020507	0.9493099975585938	-0.0493568000793457	0.032614601135253905	0.9805679931640625	-0.0371260986328125	0.03274069976806641	0.970572021484375	-0.036970600128173825	0.03469960021972656	0.9534650268554687	-0.06448049926757812	0.039946800231933595	0.9529219970703126	-0.07457489776611329	0.035913700103759764	1.0211400146484375
26	0.8666666666666667	-0.0198799991607666	0.001693109989166259	0.9390499877929688	-0.024357900619506836	-0.005912670135498047	0.9633060302734375	-0.03719380187988281	-0.0060157299041748045	0.9871810302734375	-0.048256698608398436	0.01599050045013428	1.0006300048828125	-0.052374099731445314	-0.010570300102233888	0.9744119873046875	-0.0392958984375	-0.013756799697875976	0.9623980102539063	-0.04333000183105469	-0.020630699157714844	0.944448974609375	-0.07745230102539062	-0.01564579963684082	0.9576240234375	-0.03950249862670899	0.002202199935913086	0.9686630249023438	-0.03636050033569336	0.002552550077438354	0.961593017578125	-0.040984199523925784	-0.001654970049858093	0.9375579833984375	-0.0784374008178711	0.0039406299591064455	0.9499019775390625	-0.045739200592041014	0.017606000900268554	0.9747349853515626	-0.03752450180053711	0.018828399658203127	0.965447998046875	-0.037054698944091795	0.018140399932861328	0.9411430053710937	-0.07249870300292968	0.02267490005493164	0.9492849731445312	-0.0491416015625	0.032214698791503904	0.9794569702148438	-0.03691719818115234	0.03226969909667969	0.9686859741210937	-0.037642501831054685	0.034039398193359376	0.9515969848632813	-0.06477839660644531	0.03984289932250976	0.9525889892578125	-0.07486689758300781	0.03618930053710938	1.021469970703125
